<svg xmlns="http://www.w3.org/2000/svg" viewBox="0 0 212.65 107.93">
  <title>barracwda</title>
  <g id="Layer_2" data-name="Layer 2">
    <g id="Layer_1-2" data-name="Layer 1">
      <rect width="212.65" height="107.93"/>
      <path d="M63.24,6.32l21.66,43H41.57ZM74.64,43,63.24,20.38,51.84,43ZM32.41,23.27A9.89,9.89,0,0,0,25.47,6.32H6.32v43H28.43a13.33,13.33,0,0,0,4-26ZM16.25,12.65h9.22a3.57,3.57,0,1,1,0,7.14H12.65V12.65ZM28.43,43H12.65V29H28.43a7,7,0,0,1,0,14ZM122,22.24A15.92,15.92,0,0,0,106.06,6.32H88.64v43H95V12.65h11.1a9.6,9.6,0,1,1,0,19.19H97.21l1.36,6.33h5.49l8.11,11.15H122l-9.19-12.64A15.93,15.93,0,0,0,122,22.24Zm37.12,0A15.92,15.92,0,0,0,143.18,6.32H125.75v43h6.32V12.65h11.11a9.6,9.6,0,0,1,0,19.19h-8.85l1.36,6.33h5.49l8.11,11.15h9.81l-9.2-12.64A15.94,15.94,0,0,0,159.1,22.24ZM184.66,6.32l21.66,43H163ZM196.06,43l-11.4-22.62L173.26,43ZM76.3,95.31a21.51,21.51,0,1,1,0-30.41l-4.48,4.48a15.17,15.17,0,1,0,0,21.45ZM61.1,76.94a3.16,3.16,0,1,0,3.16,3.16A3.16,3.16,0,0,0,61.1,76.94ZM103.4,58.6l12.45,33.85-3.37,9.15-8.11-22-8.11,22-15.82-43h6.74l9.08,24.69L101,70.4,96.66,58.6Zm18.17,0-7.8,21.21L117.13,89,128.31,58.6Zm22.77,0H132.07v43h12.27a21.5,21.5,0,1,0,0-43Zm0,36.68H138.4V64.93h5.94a15.18,15.18,0,1,1,0,30.35ZM184.66,58.6l21.66,43H163Zm11.4,36.68-11.4-22.62-11.4,22.62Z" fill="#fff"/>
    </g>
  </g>
</svg>
